# ProBuilder 4.0.5
# https://unity3d.com/unity/features/worldbuilding/probuilder
# 2021/9/23 15:44:47

mtllib ./Cylinder.mtl
o Cylinder

g Cylinder
v -0.05 5.960465E-09 0.015
v -0.05 -5.960465E-09 -0.015
v -0.04903926 0.009754524 0.015
v -0.04903926 0.009754512 -0.015
v -0.04619398 0.01913418 0.015
v -0.04619398 0.01913417 -0.015
v -0.04157348 0.02777852 0.015
v -0.04157348 0.02777851 -0.015
v -0.03535534 0.03535535 0.015
v -0.03535534 0.03535534 -0.015
v -0.02777851 0.04157349 0.015
v -0.02777851 0.04157348 -0.015
v -0.01913417 0.04619399 0.015
v -0.01913417 0.04619398 -0.015
v -0.009754518 0.04903928 0.015
v -0.009754518 0.04903926 -0.015
v 0 0.05000002 0.015
v 0 0.05 -0.015
v 0.009754515 0.04903928 0.015
v 0.009754515 0.04903926 -0.015
v 0.01913417 0.04619399 0.015
v 0.01913417 0.04619398 -0.015
v 0.02777851 0.04157349 0.015
v 0.02777851 0.04157348 -0.015
v 0.03535534 0.03535535 0.015
v 0.03535534 0.03535534 -0.015
v 0.04157348 0.02777852 0.015
v 0.04157348 0.02777851 -0.015
v 0.04619398 0.01913418 0.015
v 0.04619398 0.01913417 -0.015
v 0.04903927 0.009754523 0.015
v 0.04903927 0.009754512 -0.015
v 0.05 1.589325E-09 0.015
v 0.05 -1.03316E-08 -0.015
v 0.04903927 -0.009754508 0.015
v 0.04903927 -0.00975452 -0.015
v 0.04619398 -0.01913417 0.015
v 0.04619398 -0.01913418 -0.015
v 0.04157348 -0.02777851 0.015
v 0.04157348 -0.02777852 -0.015
v 0.03535534 -0.03535534 0.015
v 0.03535534 -0.03535535 -0.015
v 0.02777852 -0.04157348 0.015
v 0.02777852 -0.04157349 -0.015
v 0.01913418 -0.04619398 0.015
v 0.01913418 -0.04619399 -0.015
v 0.009754521 -0.04903926 0.015
v 0.009754521 -0.04903928 -0.015
v 0 -0.05 0.015
v 0 -0.05000002 -0.015
v -0.009754521 -0.04903926 0.015
v -0.009754521 -0.04903928 -0.015
v -0.01913418 -0.04619397 0.015
v -0.01913418 -0.04619399 -0.015
v -0.0277785 -0.04157349 0.015
v -0.0277785 -0.0415735 -0.015
v -0.03535533 -0.03535534 0.015
v -0.03535533 -0.03535536 -0.015
v -0.04157348 -0.02777851 0.015
v -0.04157348 -0.02777852 -0.015
v -0.04619398 -0.01913417 0.015
v -0.04619398 -0.01913418 -0.015
v -0.04903927 -0.009754508 0.015
v -0.04903927 -0.009754519 -0.015

vt -0.04900865 -0.5
vt -0.04900865 0.5
vt 0.0490085 -0.5
vt 0.0490085 0.5

vn -0.1 1.310161E-08 -4.685498E-16
vn -0.09807853 0.01950904 -6.976975E-10
vn -0.09238796 0.03826834 -1.368582E-09
vn -0.08314696 0.05555703 -1.986874E-09
vn -0.07071068 0.07071069 -2.528811E-09
vn -0.05555702 0.08314698 -2.973567E-09
vn -0.03826834 0.09238797 -3.304051E-09
vn -0.01950904 0.09807854 -3.507561E-09
vn 1.497326E-09 0.1 -3.576279E-09
vn 0.01950903 0.09807855 -3.507562E-09
vn 0.03826834 0.09238797 -3.304051E-09
vn 0.05555701 0.08314698 -2.973567E-09
vn 0.07071067 0.0707107 -2.528811E-09
vn 0.08314697 0.05555703 -1.986874E-09
vn 0.09238794 0.03826837 -1.368583E-09
vn 0.09807853 0.01950903 -6.976973E-10
vn 0.1 -5.989305E-09 2.141942E-16
vn 0.09807853 -0.01950904 6.976975E-10
vn 0.09238794 -0.03826837 1.368583E-09
vn 0.08314696 -0.05555703 1.986874E-09
vn 0.07071068 -0.07071069 2.528811E-09
vn 0.05555704 -0.08314696 2.973567E-09
vn 0.03826836 -0.09238796 3.30405E-09
vn 0.01950904 -0.09807855 3.507562E-09
vn 0 -0.1 3.576279E-09
vn -0.01950904 -0.09807854 3.507561E-09
vn -0.03826835 -0.09238796 3.30405E-09
vn -0.05555702 -0.08314697 2.973567E-09
vn -0.07071066 -0.0707107 2.528811E-09
vn -0.08314695 -0.05555705 1.986874E-09
vn -0.09238795 -0.03826835 1.368582E-09
vn -0.09807853 -0.01950902 6.976969E-10

g Cylinder
usemtl ARButtonFloatingHoverCylinder
f 3/3/2 4/4/2 2/2/1 1/1/1
f 5/3/3 6/4/3 4/2/2 3/1/2
f 7/3/4 8/4/4 6/2/3 5/1/3
f 9/3/5 10/4/5 8/2/4 7/1/4
f 11/3/6 12/4/6 10/2/5 9/1/5
f 13/3/7 14/4/7 12/2/6 11/1/6
f 15/3/8 16/4/8 14/2/7 13/1/7
f 17/3/9 18/4/9 16/2/8 15/1/8
f 19/3/10 20/4/10 18/2/9 17/1/9
f 21/3/11 22/4/11 20/2/10 19/1/10
f 23/3/12 24/4/12 22/2/11 21/1/11
f 25/3/13 26/4/13 24/2/12 23/1/12
f 27/3/14 28/4/14 26/2/13 25/1/13
f 29/3/15 30/4/15 28/2/14 27/1/14
f 31/3/16 32/4/16 30/2/15 29/1/15
f 33/3/17 34/4/17 32/2/16 31/1/16
f 35/3/18 36/4/18 34/2/17 33/1/17
f 37/3/19 38/4/19 36/2/18 35/1/18
f 39/3/20 40/4/20 38/2/19 37/1/19
f 41/3/21 42/4/21 40/2/20 39/1/20
f 43/3/22 44/4/22 42/2/21 41/1/21
f 45/3/23 46/4/23 44/2/22 43/1/22
f 47/3/24 48/4/24 46/2/23 45/1/23
f 49/3/25 50/4/25 48/2/24 47/1/24
f 51/3/26 52/4/26 50/2/25 49/1/25
f 53/3/27 54/4/27 52/2/26 51/1/26
f 55/3/28 56/4/28 54/2/27 53/1/27
f 57/3/29 58/4/29 56/2/28 55/1/28
f 59/3/30 60/4/30 58/2/29 57/1/29
f 61/3/31 62/4/31 60/2/30 59/1/30
f 63/3/32 64/4/32 62/2/31 61/1/31
f 1/3/1 2/4/1 64/2/32 63/1/32

